<?xml version="1.0" standalone="no"?>
<!DOCTYPE svg PUBLIC "-//W3C//DTD SVG 20010904//EN"
 "http://www.w3.org/TR/2001/REC-SVG-20010904/DTD/svg10.dtd">
<svg version="1.0" xmlns="http://www.w3.org/2000/svg"
 width="3840.000000pt" height="3840.000000pt" viewBox="0 0 3840.000000 3840.000000"
 preserveAspectRatio="xMidYMid meet">
<metadata>
Created by potrace 1.11, written by Peter Selinger 2001-2013
</metadata>
<g transform="translate(0.000000,3840.000000) scale(0.100000,-0.100000)"
fill="#000000" stroke="none">
<path d="M18658 38085 c-1 -2 -88 -6 -193 -10 -104 -4 -215 -8 -245 -10 -205
-12 -282 -16 -335 -20 -33 -3 -94 -7 -135 -10 -84 -6 -159 -12 -240 -20 -30
-3 -82 -7 -115 -10 -33 -3 -76 -7 -95 -10 -19 -2 -64 -7 -100 -10 -36 -3 -99
-10 -140 -15 -41 -5 -97 -12 -125 -15 -54 -6 -191 -23 -240 -30 -16 -2 -66 -9
-110 -15 -44 -5 -91 -12 -105 -15 -14 -2 -61 -9 -105 -15 -100 -14 -126 -18
-195 -30 -30 -5 -68 -12 -85 -14 -31 -5 -296 -52 -350 -61 -70 -13 -195 -37
-260 -51 -38 -7 -82 -16 -98 -18 -15 -3 -35 -7 -45 -10 -9 -3 -29 -8 -44 -11
-16 -3 -40 -7 -55 -10 -287 -57 -1164 -278 -1286 -324 -15 -6 -27 -8 -27 -6 0
3 -17 -2 -37 -9 -21 -8 -87 -29 -148 -46 -235 -68 -995 -322 -1080 -360 -11
-5 -65 -26 -120 -45 -55 -20 -113 -43 -130 -50 -16 -8 -68 -28 -115 -46 -47
-17 -98 -38 -115 -45 -16 -7 -93 -38 -170 -69 -132 -54 -378 -159 -490 -209
-483 -219 -883 -416 -1325 -653 -408 -219 -965 -554 -1397 -840 -160 -105
-452 -305 -478 -325 -5 -5 -80 -58 -165 -120 -192 -137 -259 -187 -480 -357
-237 -183 -704 -561 -735 -595 -5 -6 -41 -38 -80 -70 -38 -33 -99 -85 -135
-117 -36 -32 -75 -66 -87 -76 -18 -16 -79 -71 -208 -188 -240 -219 -814 -786
-1021 -1010 -56 -61 -115 -124 -130 -141 -16 -17 -63 -69 -104 -115 -41 -46
-95 -106 -120 -133 -25 -28 -49 -56 -55 -62 -5 -6 -32 -37 -60 -69 -27 -32
-54 -63 -60 -69 -5 -6 -32 -38 -60 -71 -27 -33 -52 -62 -55 -65 -9 -7 -279
-336 -329 -400 -24 -30 -56 -71 -71 -90 -185 -228 -527 -691 -746 -1010 -255
-372 -605 -925 -766 -1210 -14 -25 -51 -90 -83 -145 -278 -487 -572 -1063
-802 -1575 -164 -362 -393 -922 -500 -1220 -156 -432 -267 -763 -359 -1075
-36 -121 -69 -231 -74 -245 -21 -58 -212 -790 -223 -855 -6 -35 -43 -194 -57
-245 -5 -19 -12 -51 -15 -70 -3 -19 -10 -51 -15 -70 -5 -19 -11 -46 -13 -60
-3 -14 -17 -82 -31 -152 -14 -70 -28 -140 -31 -155 -2 -15 -7 -39 -10 -53 -6
-30 -32 -172 -40 -215 -2 -16 -7 -40 -9 -51 -2 -12 -7 -38 -10 -58 -3 -20 -9
-52 -12 -72 -3 -20 -8 -46 -10 -58 -2 -11 -9 -52 -14 -91 -6 -38 -12 -77 -15
-85 -2 -8 -7 -39 -10 -69 -4 -30 -8 -63 -11 -74 -2 -11 -8 -57 -14 -101 -6
-45 -13 -92 -15 -106 -2 -14 -7 -50 -10 -80 -4 -30 -9 -62 -10 -70 -2 -8 -6
-44 -10 -80 -3 -36 -8 -72 -10 -80 -2 -8 -7 -49 -10 -90 -4 -41 -8 -82 -10
-90 -2 -9 -6 -47 -10 -85 -3 -39 -8 -89 -11 -112 -10 -100 -13 -132 -19 -208
-3 -44 -8 -96 -10 -115 -8 -69 -25 -317 -40 -580 -27 -495 -27 -1518 0 -1970
1 -25 5 -101 9 -170 4 -69 9 -145 11 -170 2 -25 7 -78 10 -117 5 -78 14 -180
20 -253 3 -25 7 -74 10 -110 3 -36 7 -78 9 -95 3 -16 7 -64 11 -105 3 -41 8
-86 10 -100 2 -14 7 -50 10 -80 12 -112 36 -306 50 -400 8 -54 15 -107 20
-150 3 -25 8 -52 10 -60 2 -8 6 -37 10 -65 3 -27 10 -75 15 -105 14 -85 19
-112 25 -155 4 -22 19 -112 35 -200 16 -88 32 -174 34 -190 17 -99 95 -479
126 -611 11 -45 22 -97 25 -116 3 -18 12 -54 20 -81 8 -26 14 -49 14 -52 1
-10 8 -39 75 -315 80 -325 254 -916 396 -1340 75 -227 261 -741 290 -805 5
-11 37 -89 70 -173 292 -739 676 -1541 1078 -2255 62 -109 122 -214 135 -235
13 -20 34 -58 47 -85 14 -26 28 -47 32 -47 5 0 8 -4 8 -10 0 -5 37 -69 82
-142 44 -73 93 -154 108 -179 86 -144 409 -634 563 -854 186 -265 423 -585
599 -810 44 -55 91 -115 106 -134 15 -19 42 -53 60 -75 18 -23 39 -48 45 -56
45 -56 142 -176 147 -180 3 -3 39 -45 80 -95 41 -49 80 -95 85 -101 6 -6 29
-33 52 -60 49 -58 75 -88 111 -129 15 -17 61 -69 102 -115 41 -47 86 -97 100
-111 14 -14 45 -48 69 -75 140 -156 319 -342 576 -599 326 -326 435 -431 739
-705 28 -25 60 -54 72 -65 12 -11 50 -45 84 -75 35 -30 68 -59 74 -65 12 -10
123 -106 165 -140 13 -11 29 -25 35 -30 25 -23 355 -295 408 -336 31 -24 114
-89 185 -145 269 -211 551 -419 848 -625 194 -134 565 -381 637 -424 10 -5 53
-32 95 -59 284 -179 741 -447 1023 -598 261 -141 363 -193 635 -328 496 -245
910 -430 1367 -610 84 -33 162 -65 173 -70 64 -29 578 -215 805 -290 424 -142
1015 -316 1340 -396 269 -65 292 -71 315 -75 6 -1 30 -8 55 -15 25 -7 60 -16
78 -19 19 -3 71 -14 115 -25 126 -29 257 -56 457 -95 14 -2 36 -7 50 -10 34
-7 57 -12 190 -36 144 -26 132 -24 275 -48 194 -33 383 -61 640 -97 28 -3 237
-29 323 -39 144 -17 291 -32 381 -40 20 -2 65 -6 101 -9 210 -19 535 -42 720
-51 336 -16 502 -20 975 -20 464 0 751 6 985 20 30 2 109 6 175 10 66 4 136 8
155 10 19 2 84 7 144 10 60 4 117 8 128 10 10 2 60 7 111 10 51 3 103 8 117
10 24 4 61 7 195 20 62 6 75 7 210 24 44 6 105 13 135 16 30 3 82 10 115 15
33 5 85 12 115 15 49 5 138 18 210 30 14 2 45 7 70 10 25 3 56 7 70 10 14 2
41 7 60 10 19 3 46 7 60 10 14 3 39 7 55 9 82 13 228 38 295 51 41 8 87 16
101 19 14 2 73 13 130 25 57 11 116 23 132 26 37 7 58 11 194 41 65 14 129 27
143 30 13 3 63 14 110 25 47 12 96 23 110 25 43 8 408 100 570 144 85 23 162
43 170 45 13 3 196 56 445 130 723 213 1645 566 2470 945 243 112 908 450
1115 567 19 11 62 35 95 53 122 67 464 266 590 343 71 44 142 87 157 96 116
68 726 469 853 560 22 16 105 75 185 132 176 125 390 282 414 304 6 6 47 37
91 69 74 55 381 298 436 344 13 11 80 66 149 123 106 87 310 260 346 294 6 5
39 35 74 65 102 90 230 204 284 255 18 17 86 80 152 140 217 200 848 838 999
1009 6 7 33 36 60 66 50 56 187 208 215 240 8 9 38 43 65 75 28 32 55 63 60
69 6 6 32 38 60 71 27 33 52 62 55 65 15 12 355 429 417 510 6 8 31 40 55 70
149 187 493 656 674 920 343 500 630 963 934 1505 337 601 724 1405 965 2000
31 77 60 149 65 160 103 224 423 1136 556 1585 142 481 314 1153 378 1480 3
14 7 36 10 49 43 197 138 708 161 866 7 48 13 83 19 111 2 12 7 45 11 75 3 30
8 61 10 69 2 8 7 35 10 60 3 25 8 56 10 70 2 14 7 48 10 75 3 28 7 61 10 75 2
14 6 50 10 80 3 30 8 66 10 80 2 14 7 50 10 81 3 31 7 65 9 75 2 11 7 51 10
89 4 39 9 86 11 105 2 19 6 64 10 100 3 36 8 81 10 100 6 46 23 254 30 355 4
44 8 100 10 125 2 25 7 99 10 165 4 66 8 141 10 167 27 358 27 1544 0 1968 -2
30 -6 111 -10 180 -3 69 -8 141 -10 160 -2 19 -7 73 -10 120 -3 47 -8 110 -11
140 -10 116 -14 167 -19 220 -2 30 -6 71 -9 90 -2 19 -7 69 -11 110 -3 41 -8
86 -10 100 -2 14 -7 50 -10 80 -12 112 -36 306 -50 400 -8 54 -15 107 -20 150
-3 25 -8 52 -10 60 -2 8 -6 38 -10 65 -3 28 -10 75 -15 105 -14 85 -19 112
-25 155 -4 22 -19 112 -35 200 -16 88 -32 174 -34 190 -15 84 -109 541 -131
635 -10 40 -57 247 -60 260 -2 8 -22 89 -45 180 -23 91 -43 172 -45 181 -16
79 -178 644 -251 879 -121 382 -360 1069 -414 1185 -5 11 -37 90 -70 175 -34
85 -67 169 -74 185 -8 17 -30 71 -51 120 -20 50 -43 105 -51 123 -505 1174
-1113 2271 -1843 3327 -190 275 -490 681 -665 901 -23 28 -54 68 -71 89 -16
22 -45 57 -63 79 -40 49 -41 50 -117 146 -33 41 -63 77 -66 80 -3 3 -55 64
-115 135 -59 72 -113 135 -119 141 -5 6 -32 37 -60 69 -27 32 -54 63 -60 69
-5 6 -44 49 -85 96 -41 47 -86 97 -100 111 -14 14 -45 48 -69 75 -140 156
-319 342 -576 599 -325 326 -447 441 -739 705 -28 25 -69 61 -91 81 -22 20
-52 47 -66 60 -59 53 -325 280 -399 339 -24 19 -48 40 -54 45 -6 6 -58 49
-116 95 -58 47 -110 90 -116 95 -7 6 -25 20 -40 32 -16 12 -74 58 -129 101
-264 206 -588 445 -875 643 -183 127 -554 374 -622 414 -10 5 -53 32 -95 59
-695 439 -1520 880 -2303 1231 -255 114 -266 119 -415 180 -49 21 -103 43
-120 51 -16 7 -100 40 -185 74 -85 33 -164 65 -175 70 -113 52 -859 313 -1175
410 -74 23 -164 50 -199 61 -87 27 -372 110 -395 114 -10 3 -33 9 -50 14 -17
6 -74 21 -126 35 -52 13 -131 34 -175 45 -44 12 -89 23 -100 25 -11 3 -103 25
-205 49 -262 64 -527 122 -740 162 -14 3 -36 7 -50 10 -34 7 -57 12 -190 36
-144 26 -132 24 -275 48 -194 33 -383 61 -640 97 -28 3 -237 29 -323 39 -146
17 -296 33 -381 40 -20 2 -63 6 -96 9 -33 3 -94 8 -135 11 -41 4 -95 8 -120
10 -25 2 -90 7 -145 10 -55 3 -125 8 -155 10 -30 3 -116 7 -190 11 -74 3 -169
8 -210 11 -86 5 -1286 13 -1292 8z m1287 -259 c39 -2 131 -7 205 -11 138 -7
192 -10 340 -20 148 -10 224 -16 270 -20 25 -3 74 -7 110 -10 102 -8 182 -15
220 -20 19 -2 62 -7 95 -10 33 -4 74 -8 90 -10 17 -2 57 -6 90 -10 33 -3 71
-8 85 -10 14 -3 52 -7 85 -10 33 -3 71 -8 85 -10 28 -6 73 -11 145 -20 28 -3
57 -8 65 -10 8 -2 38 -6 65 -10 43 -5 86 -11 205 -30 68 -10 288 -46 310 -51
14 -2 63 -11 110 -19 47 -9 108 -20 135 -25 28 -6 59 -12 70 -14 115 -22 204
-39 225 -42 14 -3 33 -7 42 -10 10 -3 28 -7 40 -9 468 -86 1456 -352 2048
-552 465 -157 1008 -359 1255 -468 17 -7 122 -52 235 -100 542 -231 1086 -500
1715 -845 412 -226 1126 -672 1518 -947 381 -267 869 -633 1062 -794 11 -10
87 -72 169 -139 83 -67 174 -143 204 -168 140 -120 268 -231 342 -298 25 -22
65 -58 89 -80 24 -21 56 -49 70 -62 319 -285 828 -791 1145 -1137 66 -71 127
-137 135 -146 23 -23 66 -72 146 -164 39 -44 75 -85 81 -91 5 -6 30 -35 55
-64 24 -29 49 -58 54 -64 9 -10 62 -72 145 -170 14 -16 39 -46 56 -65 17 -20
77 -94 135 -166 57 -71 109 -137 116 -145 7 -8 42 -53 78 -100 37 -47 73 -93
81 -103 100 -122 454 -610 630 -867 278 -408 632 -973 802 -1280 13 -25 32
-58 42 -75 21 -37 54 -96 133 -240 33 -60 71 -130 85 -155 14 -25 91 -175 172
-335 208 -411 341 -695 495 -1055 48 -113 93 -218 100 -235 7 -16 32 -77 55
-135 23 -58 48 -118 55 -135 52 -116 253 -669 360 -990 90 -272 222 -710 289
-960 15 -55 33 -122 41 -150 17 -58 142 -567 148 -605 3 -14 12 -54 20 -90 24
-97 96 -445 121 -585 33 -179 79 -436 82 -460 2 -16 6 -41 9 -55 3 -14 7 -41
9 -60 3 -19 7 -48 10 -65 11 -67 44 -298 51 -360 3 -27 7 -63 10 -80 27 -205
35 -271 40 -330 4 -38 8 -81 10 -95 2 -14 7 -56 10 -95 3 -38 8 -86 10 -105 8
-73 20 -211 30 -350 4 -47 8 -105 10 -130 3 -41 12 -182 20 -335 27 -466 27
-1461 0 -1935 -4 -69 -8 -137 -20 -325 -7 -107 -22 -294 -30 -380 -2 -27 -7
-72 -9 -100 -3 -27 -8 -77 -11 -110 -3 -33 -8 -78 -10 -100 -3 -22 -7 -61 -10
-87 -10 -91 -16 -144 -36 -303 -20 -163 -23 -184 -39 -290 -5 -33 -11 -78 -15
-100 -3 -22 -8 -53 -10 -70 -3 -16 -16 -102 -30 -190 -22 -137 -86 -498 -99
-560 -2 -11 -16 -78 -31 -150 -14 -71 -40 -191 -56 -265 -17 -74 -33 -146 -35
-160 -3 -14 -25 -108 -50 -210 -25 -102 -47 -192 -49 -200 -11 -51 -113 -430
-160 -595 -105 -364 -268 -864 -398 -1220 -67 -185 -164 -440 -182 -480 -7
-16 -27 -66 -44 -110 -37 -95 -48 -121 -67 -158 -8 -16 -14 -33 -14 -38 0 -4
-11 -32 -24 -61 -14 -29 -52 -117 -85 -194 -33 -78 -88 -202 -122 -275 -34
-74 -72 -159 -86 -189 -44 -96 -319 -649 -396 -795 -256 -485 -606 -1079 -878
-1492 -142 -214 -223 -337 -232 -348 -4 -5 -81 -114 -170 -240 -169 -239 -375
-516 -531 -715 -109 -139 -298 -373 -306 -380 -3 -3 -16 -18 -29 -35 -12 -16
-44 -55 -71 -85 -26 -30 -91 -107 -145 -170 -54 -63 -101 -117 -104 -120 -3
-3 -33 -36 -66 -75 -33 -38 -87 -99 -120 -135 -33 -36 -87 -95 -119 -130 -295
-323 -736 -766 -1055 -1060 -56 -52 -117 -108 -135 -125 -177 -163 -525 -463
-756 -651 -900 -734 -1865 -1382 -2885 -1939 -211 -115 -756 -392 -950 -482
-225 -104 -532 -243 -539 -243 -3 0 -33 -13 -68 -29 -145 -66 -600 -248 -853
-340 -93 -35 -186 -69 -205 -76 -70 -28 -496 -170 -780 -260 -265 -84 -972
-278 -1131 -310 -8 -2 -47 -11 -85 -20 -193 -45 -277 -64 -307 -69 -15 -3 -35
-7 -45 -10 -9 -3 -28 -7 -42 -10 -14 -2 -115 -23 -225 -45 -110 -22 -216 -43
-235 -46 -19 -3 -82 -14 -140 -25 -58 -11 -118 -21 -135 -24 -16 -2 -70 -11
-120 -19 -49 -9 -106 -18 -125 -21 -83 -11 -117 -17 -140 -21 -13 -2 -58 -9
-100 -15 -42 -6 -85 -12 -96 -14 -10 -2 -46 -7 -79 -10 -33 -4 -71 -9 -85 -11
-31 -5 -344 -42 -425 -49 -33 -4 -76 -8 -95 -11 -19 -3 -64 -7 -100 -10 -36
-3 -85 -7 -110 -9 -25 -3 -74 -7 -110 -10 -36 -3 -94 -8 -130 -11 -70 -6 -142
-11 -320 -21 -63 -3 -133 -7 -155 -9 -318 -26 -1556 -26 -1915 0 -30 2 -111 6
-180 10 -69 3 -138 8 -155 10 -16 2 -77 6 -135 10 -58 3 -121 8 -140 10 -19 2
-71 7 -115 10 -44 3 -93 8 -110 10 -16 2 -59 7 -95 10 -36 3 -81 7 -100 9 -19
3 -62 7 -95 11 -33 3 -73 8 -90 10 -55 7 -119 15 -170 20 -27 3 -63 8 -80 10
-44 7 -93 13 -150 20 -27 3 -57 8 -65 10 -8 2 -37 6 -65 10 -43 5 -86 11 -205
30 -68 10 -288 46 -310 51 -14 2 -63 11 -110 19 -47 9 -107 20 -135 25 -27 6
-59 12 -70 14 -115 22 -204 39 -225 42 -14 3 -33 7 -42 10 -10 3 -30 7 -45 10
-16 3 -119 25 -231 50 -111 25 -211 47 -220 49 -58 11 -643 164 -822 215 -388
111 -908 277 -1185 380 -27 10 -113 42 -190 70 -172 64 -393 148 -420 160 -11
5 -114 48 -230 96 -115 47 -230 95 -255 106 -25 11 -58 26 -75 33 -395 171
-1027 480 -1410 690 -88 48 -182 100 -210 115 -403 221 -1126 672 -1518 947
-278 195 -789 570 -807 592 -3 4 -25 22 -50 41 -62 48 -390 310 -415 331 -11
10 -101 87 -200 170 -99 84 -220 189 -270 233 -49 45 -107 97 -129 116 -21 19
-51 45 -65 58 -320 287 -826 789 -1145 1137 -66 72 -127 137 -135 146 -23 23
-66 72 -146 164 -39 44 -75 85 -81 91 -5 6 -30 35 -55 64 -24 29 -49 58 -54
64 -9 10 -62 72 -145 170 -14 16 -39 46 -56 65 -36 42 -347 431 -384 481 -14
18 -34 45 -46 59 -71 87 -363 487 -524 717 -72 103 -374 557 -442 664 -623
987 -1138 1995 -1558 3045 -81 202 -201 514 -220 575 -5 14 -32 90 -60 170
-157 444 -321 977 -446 1460 -26 96 -47 182 -49 190 -2 8 -13 53 -25 100 -12
47 -24 95 -26 107 -2 12 -16 71 -30 130 -32 134 -103 466 -110 513 -3 19 -11
62 -19 95 -7 33 -16 76 -19 95 -3 19 -15 85 -26 145 -21 115 -68 389 -75 440
-2 17 -6 44 -9 60 -9 53 -41 278 -50 355 -4 25 -15 113 -25 195 -11 83 -23
182 -26 220 -4 39 -8 81 -10 95 -2 14 -7 57 -10 95 -3 39 -8 86 -10 105 -8 71
-18 186 -30 345 -3 50 -8 113 -10 140 -2 28 -7 100 -10 160 -4 61 -8 133 -10
160 -27 378 -27 1467 0 1950 5 98 15 256 20 310 2 28 6 93 10 145 7 97 8 110
19 240 7 78 12 134 20 210 7 60 15 138 21 203 7 69 25 216 30 247 2 14 7 50
10 80 3 30 8 66 10 80 4 28 11 74 20 140 3 25 8 56 10 70 2 14 7 45 10 70 3
25 15 101 26 170 11 69 22 139 25 155 5 34 22 128 29 165 3 13 11 63 20 110 8
47 17 99 20 115 94 523 315 1418 481 1950 15 50 28 92 29 95 3 23 219 672 234
705 5 11 19 49 31 85 49 140 223 599 250 655 5 11 35 83 66 160 31 77 69 168
85 203 16 35 29 65 29 67 0 4 103 235 164 370 20 44 41 89 46 100 44 100 332
675 423 845 325 611 584 1044 996 1665 47 71 89 134 94 140 4 5 33 47 65 92
237 339 528 731 699 943 7 8 63 78 125 155 61 77 115 142 118 145 3 3 16 19
29 35 12 17 44 55 70 85 27 30 81 93 120 140 69 80 164 190 186 214 6 6 44 49
85 96 41 47 82 92 90 100 8 8 39 42 69 75 270 297 751 780 1071 1075 57 52
115 106 130 120 14 14 80 72 146 130 65 58 121 107 124 110 3 3 37 32 75 65
39 33 72 63 75 66 3 3 64 54 135 113 72 60 141 118 155 130 14 11 45 37 70 56
25 19 47 37 50 40 21 23 497 392 646 500 609 442 1141 791 1700 1116 413 239
1058 578 1409 741 218 101 277 128 390 178 66 29 154 67 195 85 41 17 89 38
105 45 17 7 59 25 95 39 36 15 74 31 85 36 11 5 61 25 110 45 50 20 99 40 110
45 86 39 567 214 865 315 309 105 874 280 969 300 9 2 81 22 161 44 254 70
794 200 975 235 11 2 86 18 166 35 80 16 161 33 180 36 19 3 79 14 134 25 55
10 143 26 195 34 52 9 104 18 115 20 11 2 55 9 98 16 43 6 88 13 100 15 38 7
150 24 192 30 22 3 54 7 70 10 17 2 53 7 80 10 28 4 61 8 75 11 24 4 149 19
240 30 25 3 60 7 79 10 18 2 59 6 90 9 31 3 70 7 86 10 17 2 62 7 100 10 39 3
86 8 105 10 19 3 64 7 100 10 36 3 88 7 115 10 157 13 254 20 440 30 61 4 130
8 155 10 25 2 146 6 270 10 124 4 227 9 228 11 6 4 1137 -5 1217 -10z"/>
<path d="M18699 37416 c-2 -2 -94 -7 -204 -11 -110 -4 -225 -8 -255 -10 -30
-2 -107 -6 -170 -9 -63 -4 -135 -9 -160 -11 -25 -2 -83 -6 -130 -10 -47 -3
-101 -8 -120 -10 -19 -1 -71 -6 -115 -9 -44 -4 -98 -9 -120 -11 -88 -10 -133
-15 -190 -20 -59 -6 -90 -9 -172 -20 -93 -11 -123 -15 -243 -30 -69 -8 -141
-18 -160 -21 -19 -2 -67 -9 -107 -15 -39 -5 -80 -12 -91 -14 -11 -2 -42 -7
-69 -10 -26 -4 -97 -15 -158 -26 -60 -10 -126 -21 -145 -24 -95 -15 -282 -50
-435 -80 -93 -19 -181 -36 -195 -39 -14 -2 -108 -23 -210 -46 -102 -23 -192
-43 -200 -45 -8 -1 -34 -8 -57 -14 -22 -6 -61 -15 -84 -20 -221 -47 -797 -207
-1219 -339 -578 -181 -1394 -491 -1873 -711 -37 -17 -69 -31 -72 -31 -2 0 -41
-18 -85 -39 -44 -22 -82 -40 -83 -39 -12 3 -654 -314 -902 -445 -162 -86 -609
-335 -675 -377 -8 -5 -108 -65 -221 -133 -279 -168 -851 -537 -944 -610 -5 -4
-102 -73 -215 -154 -381 -271 -751 -557 -1110 -857 -52 -44 -97 -82 -100 -85
-3 -4 -30 -26 -60 -51 -30 -25 -57 -47 -60 -51 -3 -3 -39 -34 -80 -69 -41 -35
-82 -71 -90 -80 -8 -8 -55 -51 -105 -95 -168 -149 -327 -299 -563 -530 -189
-185 -336 -333 -424 -426 -23 -25 -79 -84 -123 -131 -190 -201 -474 -521 -680
-767 -16 -20 -33 -38 -36 -41 -26 -23 -409 -509 -563 -715 -54 -71 -107 -143
-119 -158 -50 -66 -339 -477 -415 -589 -296 -439 -656 -1028 -855 -1398 -16
-30 -41 -75 -55 -100 -79 -138 -401 -775 -486 -960 -22 -47 -66 -143 -99 -215
-525 -1149 -983 -2551 -1231 -3765 -3 -14 -8 -36 -11 -50 -3 -14 -8 -40 -11
-59 -3 -18 -7 -41 -9 -50 -2 -9 -10 -50 -19 -91 -8 -41 -18 -91 -21 -110 -3
-19 -10 -55 -15 -80 -10 -48 -26 -139 -35 -205 -4 -22 -9 -48 -11 -58 -3 -10
-8 -35 -10 -55 -3 -20 -11 -75 -19 -122 -14 -80 -48 -313 -60 -409 -3 -23 -7
-55 -9 -70 -3 -14 -7 -51 -11 -81 -3 -30 -10 -91 -16 -135 -15 -125 -18 -146
-23 -205 -3 -30 -8 -75 -11 -100 -3 -25 -7 -70 -10 -100 -2 -30 -7 -80 -10
-110 -9 -88 -14 -149 -20 -245 -3 -49 -8 -108 -10 -130 -2 -22 -7 -92 -10
-155 -3 -63 -8 -137 -10 -165 -27 -345 -27 -1429 0 -1930 7 -120 15 -266 20
-327 9 -126 25 -321 30 -363 2 -16 6 -66 10 -110 4 -44 9 -96 11 -115 3 -19 7
-60 9 -90 3 -30 7 -68 9 -85 3 -16 8 -55 11 -85 3 -30 13 -109 21 -175 8 -66
18 -138 20 -160 3 -22 12 -81 20 -131 7 -51 16 -114 19 -140 3 -27 8 -56 10
-64 2 -8 7 -35 10 -60 3 -25 17 -110 31 -190 14 -80 27 -158 30 -175 3 -16 11
-64 19 -105 8 -41 17 -86 19 -100 8 -43 54 -271 76 -375 12 -55 24 -111 26
-124 3 -12 12 -53 20 -90 9 -36 17 -73 19 -81 2 -8 10 -42 18 -75 9 -33 18
-71 20 -85 6 -34 137 -543 142 -550 2 -4 6 -17 9 -31 6 -30 77 -276 146 -504
186 -618 482 -1409 753 -2015 142 -318 175 -388 337 -715 154 -310 199 -396
307 -595 20 -36 49 -90 66 -120 64 -119 171 -307 192 -340 13 -19 33 -54 46
-77 111 -199 395 -649 607 -963 136 -201 438 -629 452 -640 3 -3 27 -35 53
-72 26 -36 53 -72 60 -80 7 -7 39 -49 72 -93 51 -69 331 -424 385 -488 209
-249 392 -464 455 -532 17 -18 59 -66 95 -106 386 -433 942 -988 1365 -1363
55 -49 105 -94 110 -100 6 -6 39 -36 75 -66 36 -30 70 -59 76 -65 6 -5 35 -30
64 -55 30 -25 70 -59 90 -76 19 -17 48 -42 64 -55 16 -13 34 -29 40 -35 12
-11 446 -359 506 -406 238 -184 599 -446 883 -641 126 -87 230 -157 233 -157
3 0 10 -5 17 -11 11 -10 245 -159 492 -314 164 -104 561 -333 835 -483 159
-87 783 -404 945 -479 909 -424 1750 -739 2715 -1020 85 -24 166 -47 179 -49
14 -3 27 -7 31 -9 7 -5 516 -136 550 -142 14 -2 52 -11 85 -20 33 -8 67 -16
75 -18 8 -2 45 -10 81 -19 37 -8 78 -17 90 -20 13 -2 69 -14 124 -26 233 -49
338 -70 560 -110 94 -16 181 -32 195 -35 66 -12 526 -81 595 -90 28 -3 61 -8
75 -10 14 -2 48 -7 75 -10 47 -5 99 -11 170 -20 17 -2 57 -7 90 -10 33 -3 76
-8 95 -10 147 -17 149 -17 305 -30 44 -4 97 -9 117 -10 50 -5 171 -15 243 -20
512 -33 718 -40 1290 -40 448 0 707 5 975 20 174 10 257 15 314 20 34 3 95 7
136 10 41 2 100 7 130 10 110 11 156 15 215 20 33 3 78 8 100 10 22 3 67 8
100 10 33 3 76 7 95 10 19 3 53 7 75 10 51 5 276 33 335 41 25 3 104 14 175
25 72 11 146 22 165 24 19 3 60 10 90 15 30 5 73 12 95 15 36 6 401 70 450 80
212 42 360 72 490 101 88 20 167 37 177 39 51 11 446 109 578 145 85 23 162
43 170 45 43 10 418 121 575 170 99 32 185 58 190 60 6 1 17 5 25 8 8 3 69 24
135 45 452 150 1122 407 1428 546 30 14 58 26 62 26 3 0 44 18 91 40 47 22 87
40 89 40 2 0 55 25 120 55 64 30 118 55 120 55 3 0 112 52 242 116 131 64 252
123 268 130 62 30 437 229 605 322 74 42 144 80 155 86 50 27 501 295 597 354
491 305 921 599 1378 941 107 81 204 154 215 163 11 9 115 92 230 184 174 139
374 302 395 324 3 3 52 45 110 95 58 49 119 102 135 117 17 14 39 35 51 45 12
10 58 52 104 93 46 41 91 82 102 91 24 22 235 219 307 288 212 203 558 553
751 761 134 144 114 122 215 235 44 50 85 95 90 101 6 6 33 37 60 69 28 31 61
70 75 85 14 15 43 49 65 75 22 27 45 53 50 59 41 44 360 435 447 546 14 19 44
58 65 85 359 464 721 981 1019 1455 66 105 285 466 316 520 14 25 61 106 103
180 42 74 93 164 112 200 20 36 47 85 61 110 56 98 139 259 290 560 154 309
180 362 289 605 30 66 64 140 75 164 44 99 174 406 240 571 341 851 591 1637
813 2555 20 85 14 58 69 305 38 177 54 251 80 380 3 14 7 36 10 50 6 27 22
113 31 170 3 19 8 42 10 50 2 8 7 29 9 45 3 17 16 95 30 175 13 80 27 163 30
185 4 23 8 50 10 60 2 11 7 45 11 75 4 30 9 62 10 71 4 19 43 303 50 364 3 22
7 56 10 75 2 19 7 58 10 85 3 28 8 66 10 85 3 19 7 61 10 93 2 32 7 73 9 90 3
18 8 68 12 111 3 43 7 86 9 95 1 9 6 61 9 116 4 55 9 118 11 140 6 51 13 150
20 290 4 61 8 137 10 170 27 416 27 1473 0 1905 -2 36 -6 117 -10 180 -3 63
-8 138 -10 165 -2 28 -7 84 -10 125 -5 69 -10 132 -20 235 -2 22 -7 72 -10
110 -3 39 -9 90 -11 115 -3 25 -7 65 -9 89 -2 24 -7 65 -10 90 -3 25 -8 66
-11 91 -2 25 -11 99 -20 165 -8 66 -18 138 -20 160 -3 22 -12 81 -20 131 -7
51 -16 114 -19 140 -3 27 -8 56 -10 64 -2 8 -7 35 -10 60 -3 25 -17 110 -31
190 -14 80 -27 159 -30 175 -3 17 -11 64 -19 105 -8 41 -17 86 -19 100 -10 54
-56 282 -81 395 -14 66 -28 129 -30 140 -3 11 -10 45 -17 75 -6 30 -12 57 -13
60 -31 156 -213 843 -301 1135 -109 359 -341 1049 -394 1170 -5 11 -47 117
-93 235 -276 702 -636 1476 -962 2065 -141 254 -129 233 -252 445 -469 808
-1089 1699 -1664 2395 -121 145 -392 463 -454 530 -16 18 -59 66 -95 106 -386
433 -948 994 -1365 1363 -55 48 -107 96 -115 105 -8 9 -35 33 -60 53 -25 20
-58 49 -75 63 -16 15 -52 45 -80 68 -27 23 -65 56 -85 73 -19 17 -48 42 -64
55 -16 13 -34 29 -40 34 -6 6 -34 28 -61 50 -28 21 -52 42 -55 45 -12 14 -375
301 -520 411 -247 188 -857 620 -993 704 -9 6 -96 61 -194 124 -98 63 -194
124 -213 136 -257 164 -683 411 -1035 599 -175 94 -780 397 -905 454 -25 11
-76 35 -115 52 -288 131 -595 262 -915 387 -118 46 -224 88 -235 93 -11 4 -33
13 -50 18 -16 6 -75 27 -130 47 -239 87 -618 215 -815 274 -58 18 -116 36
-130 41 -14 5 -74 23 -135 40 -60 17 -123 36 -140 41 -182 57 -719 193 -1045
264 -209 47 -252 56 -379 81 -148 30 -130 27 -306 58 -191 34 -197 35 -225 41
-64 12 -532 82 -598 90 -27 3 -58 7 -70 10 -11 2 -47 6 -79 10 -32 3 -69 7
-83 10 -14 2 -52 7 -85 10 -33 4 -73 8 -90 10 -16 2 -59 6 -95 10 -36 3 -76 8
-90 10 -14 3 -59 7 -100 10 -41 3 -91 8 -110 10 -19 2 -71 7 -115 10 -44 4
-96 8 -115 10 -19 2 -87 6 -150 10 -63 4 -128 8 -143 10 -16 2 -101 7 -190 11
-89 4 -184 9 -212 11 -65 5 -1232 13 -1236 9z m1231 -510 c30 -2 120 -7 200
-10 80 -4 165 -9 190 -11 25 -2 86 -6 135 -10 122 -7 304 -22 490 -40 22 -3
67 -7 100 -10 33 -3 76 -8 95 -10 19 -3 58 -7 85 -10 28 -3 66 -7 85 -10 19
-2 76 -9 125 -15 50 -6 117 -15 150 -20 33 -5 83 -12 110 -15 28 -3 75 -10
105 -15 30 -5 78 -12 105 -16 48 -6 59 -8 115 -18 14 -3 43 -8 65 -11 22 -3
92 -15 155 -26 63 -11 131 -22 150 -25 142 -23 753 -151 905 -190 33 -9 69
-18 80 -20 11 -2 101 -24 200 -49 1104 -281 2144 -655 3199 -1151 158 -75 658
-326 786 -396 25 -14 77 -42 115 -63 39 -21 89 -49 112 -61 171 -93 688 -399
828 -490 33 -21 65 -41 70 -44 55 -27 567 -372 785 -528 171 -123 530 -389
540 -401 3 -3 23 -19 45 -36 105 -77 525 -419 675 -549 392 -340 646 -575 979
-907 233 -233 552 -568 642 -674 19 -22 41 -47 49 -55 37 -37 196 -220 395
-455 168 -198 421 -518 601 -760 65 -88 123 -164 127 -170 26 -32 260 -364
352 -500 128 -189 350 -534 477 -743 82 -135 91 -150 115 -192 11 -19 41 -70
67 -113 25 -43 46 -80 46 -82 0 -2 19 -36 43 -77 86 -145 378 -689 431 -803 8
-16 57 -118 109 -225 52 -107 127 -267 167 -355 40 -88 81 -180 92 -205 183
-403 427 -1035 594 -1540 104 -312 147 -455 284 -940 40 -141 125 -478 145
-570 1 -8 8 -33 13 -55 6 -22 13 -51 16 -65 2 -14 14 -68 26 -120 12 -52 23
-104 26 -115 8 -41 24 -121 30 -145 6 -28 6 -32 38 -195 26 -130 38 -191 41
-215 2 -8 12 -71 24 -140 12 -69 26 -152 32 -185 5 -33 12 -72 14 -86 3 -14 7
-41 9 -60 3 -19 9 -63 15 -99 5 -36 13 -85 16 -110 3 -25 8 -63 11 -85 9 -64
12 -87 19 -145 4 -30 9 -62 10 -70 2 -9 6 -47 9 -85 4 -39 9 -77 11 -85 2 -8
6 -46 10 -85 3 -38 8 -89 10 -112 11 -96 14 -131 20 -198 3 -38 8 -88 10 -110
2 -22 7 -83 10 -135 4 -52 8 -115 11 -140 2 -25 6 -92 10 -150 3 -58 7 -127 9
-155 14 -205 19 -473 20 -930 0 -531 -7 -772 -30 -1125 -4 -52 -8 -124 -11
-160 -2 -36 -6 -94 -9 -130 -3 -36 -8 -94 -11 -130 -2 -36 -7 -85 -10 -110 -3
-25 -7 -67 -9 -95 -8 -92 -16 -170 -20 -205 -2 -19 -7 -60 -10 -90 -4 -30 -8
-62 -10 -70 -2 -8 -6 -46 -10 -83 -3 -37 -8 -76 -10 -85 -1 -9 -6 -44 -9 -77
-6 -50 -18 -135 -52 -360 -25 -172 -91 -549 -120 -695 -14 -69 -27 -132 -29
-140 -1 -8 -6 -33 -11 -55 -4 -22 -9 -44 -9 -50 -1 -5 -4 -23 -8 -40 -4 -16
-9 -41 -12 -54 -2 -13 -18 -85 -36 -160 -17 -75 -32 -143 -34 -151 -2 -8 -8
-33 -13 -55 -6 -22 -13 -51 -16 -65 -22 -106 -129 -511 -200 -756 -242 -839
-560 -1692 -938 -2511 -77 -168 -370 -757 -439 -883 -22 -41 -73 -133 -112
-205 -111 -203 -328 -579 -402 -695 -12 -19 -68 -109 -125 -200 -100 -160
-373 -573 -487 -735 -718 -1026 -1573 -2004 -2504 -2866 -94 -87 -152 -138
-375 -335 -120 -107 -284 -245 -449 -379 -88 -71 -167 -135 -175 -142 -91 -75
-503 -388 -575 -439 -16 -11 -104 -74 -195 -139 -153 -110 -624 -428 -771
-520 -189 -117 -332 -205 -334 -205 -2 0 -39 -22 -82 -49 -94 -58 -412 -241
-420 -241 -3 0 -17 -8 -31 -18 -15 -11 -72 -43 -127 -72 -55 -30 -140 -76
-190 -102 -49 -27 -157 -84 -240 -125 -82 -42 -161 -82 -175 -89 -49 -25 -422
-204 -425 -204 -2 0 -43 -18 -92 -41 -160 -75 -186 -87 -368 -164 -485 -208
-911 -370 -1415 -538 -172 -57 -482 -154 -550 -172 -8 -2 -69 -20 -135 -40
-100 -29 -344 -96 -404 -110 -9 -3 -117 -30 -241 -61 -124 -30 -234 -57 -245
-60 -11 -2 -72 -15 -135 -30 -63 -14 -126 -28 -140 -31 -14 -2 -79 -16 -145
-30 -149 -31 -150 -31 -199 -39 -22 -3 -43 -7 -46 -9 -3 -2 -23 -6 -45 -9 -22
-3 -51 -8 -65 -11 -61 -13 -77 -16 -110 -21 -19 -2 -57 -9 -85 -14 -27 -5 -63
-12 -80 -14 -16 -3 -70 -12 -120 -20 -49 -9 -108 -18 -130 -20 -42 -5 -104
-15 -137 -21 -11 -3 -46 -7 -77 -11 -31 -3 -64 -8 -75 -10 -10 -2 -44 -6 -75
-9 -31 -4 -63 -8 -71 -10 -8 -2 -42 -7 -75 -10 -33 -3 -71 -8 -85 -10 -14 -2
-56 -7 -95 -11 -38 -3 -78 -8 -88 -10 -10 -2 -53 -6 -95 -9 -42 -4 -84 -8 -92
-10 -8 -2 -53 -7 -100 -10 -47 -3 -101 -8 -120 -10 -96 -10 -289 -23 -585 -40
-350 -21 -1287 -27 -1630 -12 -328 15 -664 36 -825 52 -25 2 -79 7 -120 11
-41 3 -82 7 -90 9 -8 1 -55 6 -105 9 -49 4 -97 9 -105 11 -8 2 -44 7 -80 10
-36 4 -78 8 -95 10 -16 2 -52 6 -80 10 -27 3 -97 13 -155 21 -58 7 -125 16
-150 19 -25 3 -70 10 -100 15 -30 5 -77 12 -105 16 -48 6 -59 8 -115 18 -14 3
-43 8 -65 11 -22 3 -92 15 -155 26 -63 11 -131 22 -150 25 -19 3 -91 17 -160
31 -69 13 -136 27 -150 29 -174 33 -584 125 -835 189 -486 123 -810 218 -1330
390 -573 189 -1277 474 -1909 771 -158 75 -658 326 -786 396 -25 14 -76 42
-115 63 -38 21 -89 49 -112 61 -219 119 -681 395 -968 579 -355 227 -703 468
-1070 744 -175 131 -216 162 -415 320 -91 72 -417 341 -490 405 -392 340 -653
581 -979 907 -234 234 -553 568 -642 674 -19 22 -41 47 -49 55 -75 75 -452
518 -616 725 -43 55 -81 102 -84 105 -19 19 -281 362 -426 560 -398 541 -858
1262 -1181 1850 -92 167 -112 204 -160 295 -86 160 -289 567 -365 729 -120
257 -138 297 -220 486 -44 102 -88 203 -98 225 -10 22 -64 157 -120 300 -56
143 -106 269 -111 280 -5 11 -15 38 -23 60 -7 22 -35 99 -61 170 -161 444
-333 989 -445 1409 -31 118 -118 457 -124 486 -3 14 -24 106 -47 205 -22 99
-42 189 -45 200 -8 43 -25 121 -30 145 -3 14 -7 36 -10 50 -2 14 -13 68 -24
120 -23 112 -65 346 -101 565 -5 33 -12 72 -14 86 -3 14 -7 41 -9 60 -3 19 -9
63 -15 99 -6 36 -13 88 -16 115 -3 28 -10 75 -15 105 -5 30 -12 82 -15 115 -4
32 -8 66 -10 75 -2 8 -6 49 -10 90 -4 41 -8 77 -10 80 -2 3 -6 41 -10 85 -3
44 -8 94 -10 110 -9 70 -30 306 -40 445 -3 47 -8 105 -11 130 -2 24 -7 99 -10
165 -3 66 -7 140 -9 165 -26 303 -26 1555 0 1860 2 25 6 101 10 170 3 69 8
145 10 170 2 25 7 86 10 135 3 50 8 101 10 115 2 14 6 64 10 112 3 49 8 96 9
105 2 10 7 54 10 98 4 44 9 94 12 110 2 17 6 50 9 75 6 57 14 137 19 175 3 17
9 68 15 115 6 47 13 96 15 110 3 14 12 79 21 145 9 66 18 131 21 145 2 14 11
68 19 120 22 135 22 135 41 240 9 52 18 104 20 115 1 11 7 45 13 75 6 30 13
71 16 90 3 19 8 42 10 50 2 8 6 26 9 40 2 14 14 72 26 130 12 58 24 116 26
130 3 14 7 33 10 42 3 10 7 29 10 42 2 13 18 84 35 157 17 74 32 144 35 156 2
12 20 84 40 160 19 76 37 149 40 163 3 14 9 39 14 55 5 17 20 73 34 125 27
104 116 420 145 515 80 257 123 390 191 590 73 217 180 516 199 560 5 11 44
110 87 220 82 213 236 578 354 840 77 171 415 857 501 1015 152 280 429 765
504 880 12 19 69 109 125 200 226 363 597 903 854 1240 112 147 249 324 256
330 3 3 18 23 35 45 16 22 34 45 40 51 5 6 26 30 45 54 201 249 531 633 691
805 26 28 61 66 79 85 248 271 695 718 964 965 54 50 110 101 125 115 42 39
188 170 276 245 44 38 82 72 85 75 7 8 233 198 365 305 610 499 1303 990 1990
1408 99 61 194 118 210 127 486 282 657 374 1085 588 376 189 561 275 885 413
77 33 154 66 170 74 17 7 82 34 145 60 63 25 129 52 145 59 17 7 55 22 85 34
30 11 107 41 170 65 63 25 201 75 305 112 105 37 199 71 210 75 60 26 605 199
880 279 391 115 1153 300 1418 345 15 3 35 7 45 10 9 3 33 7 52 10 19 3 67 12
105 20 39 8 88 17 109 20 21 4 89 15 150 26 61 11 125 22 141 24 17 3 44 7 60
10 17 3 44 7 60 10 17 3 53 8 80 12 28 3 59 8 70 10 26 5 445 61 510 68 28 3
88 10 135 16 47 5 111 12 142 15 32 3 77 8 100 10 24 3 72 7 108 10 36 3 83 8
105 10 22 2 81 7 130 10 50 3 113 8 140 10 53 4 194 13 310 20 39 2 156 7 260
11 105 3 191 8 193 9 5 4 1158 -4 1222 -9z"/>
<path d="M13409 33116 c-2 -2 -40 -6 -84 -10 -85 -7 -179 -20 -325 -46 -78
-14 -99 -18 -118 -24 -9 -3 -31 -8 -49 -11 -18 -3 -45 -10 -60 -16 -15 -6 -30
-10 -33 -10 -32 3 -366 -110 -525 -177 -58 -25 -362 -177 -417 -209 -238 -139
-464 -302 -708 -512 -90 -78 -405 -392 -475 -475 -28 -32 -56 -64 -62 -71 -7
-7 -43 -51 -80 -97 -196 -240 -354 -464 -517 -728 -42 -69 -81 -132 -86 -140
-52 -84 -192 -348 -280 -526 l-109 -221 -58 12 c-192 40 -586 155 -778 227
-202 76 -428 181 -560 261 -44 26 -89 54 -100 60 -57 34 -212 155 -280 219
-169 157 -313 386 -341 540 -18 105 2 180 83 306 77 121 43 254 -73 280 -75
17 -145 -22 -187 -103 -27 -53 -26 -144 3 -295 42 -222 127 -436 225 -569 283
-383 829 -702 1595 -930 140 -41 390 -105 431 -110 4 -1 -13 -47 -38 -103 -71
-163 -205 -508 -268 -688 -31 -91 -61 -174 -66 -185 -14 -34 -117 -369 -164
-534 -60 -214 -159 -613 -181 -731 -3 -14 -18 -90 -34 -170 -29 -145 -45 -230
-55 -305 -3 -22 -10 -62 -15 -90 -5 -27 -12 -70 -15 -95 -3 -25 -12 -92 -20
-150 -21 -164 -31 -251 -40 -365 -4 -44 -8 -91 -10 -103 -2 -13 -7 -81 -10
-150 -4 -70 -8 -143 -11 -162 -4 -43 -5 -605 0 -710 5 -105 17 -280 21 -310 2
-14 6 -59 10 -100 3 -41 8 -86 10 -100 2 -14 7 -43 10 -65 9 -76 25 -180 29
-201 2 -12 7 -37 10 -55 3 -19 8 -45 11 -59 3 -14 12 -61 20 -105 9 -44 20
-98 26 -120 6 -22 12 -47 14 -55 27 -136 149 -518 210 -655 7 -16 27 -64 45
-105 297 -686 791 -1187 1400 -1419 118 -44 302 -94 395 -107 28 -3 52 -8 55
-9 6 -4 70 -11 165 -20 64 -6 372 -7 405 -1 14 2 54 7 90 11 387 36 901 215
1275 443 39 24 79 48 90 55 44 27 224 154 285 201 403 313 790 741 1215 1346
182 260 394 590 610 950 28 47 54 92 58 100 4 8 16 29 26 45 10 17 82 143 160
280 125 222 171 302 157 270 -2 -5 -7 -48 -11 -95 -4 -47 -9 -98 -11 -115 -4
-45 -4 -366 0 -400 2 -16 7 -61 11 -100 15 -154 71 -384 126 -518 139 -337
416 -577 754 -652 11 -3 31 -7 45 -10 84 -19 247 -24 364 -12 253 26 535 163
796 386 105 90 128 112 214 200 95 98 86 88 156 171 30 35 63 73 73 85 44 48
232 302 319 430 222 327 480 770 695 1192 20 40 38 72 39 70 1 -1 -2 -25 -7
-52 -6 -28 -12 -61 -14 -75 -2 -14 -13 -72 -25 -130 -11 -58 -23 -121 -26
-140 -2 -19 -9 -55 -14 -80 -12 -56 -67 -379 -75 -440 -3 -25 -10 -70 -15
-100 -12 -72 -17 -104 -25 -170 -4 -30 -9 -64 -11 -75 -27 -141 -37 -408 -21
-551 28 -258 153 -452 329 -514 188 -65 380 -31 496 90 59 61 60 62 103 135
45 77 46 80 282 600 149 330 234 514 331 719 31 65 56 120 56 121 0 2 29 65
65 140 36 76 65 138 65 140 0 2 25 56 56 121 31 66 73 157 94 204 21 47 57
126 80 175 23 50 49 106 58 125 45 102 218 449 271 544 34 60 61 111 61 113 0
2 8 16 19 31 10 15 38 59 62 97 24 39 46 72 49 75 3 3 27 31 53 63 135 160
191 78 164 -238 -7 -79 -10 -106 -22 -195 -13 -93 -17 -118 -42 -250 -13 -74
-27 -148 -30 -165 -2 -16 -24 -138 -48 -270 -24 -132 -46 -265 -50 -295 -3
-30 -8 -62 -10 -70 -2 -8 -6 -37 -10 -65 -3 -27 -8 -70 -11 -95 -3 -25 -7 -56
-9 -70 -2 -14 -7 -61 -10 -104 -4 -44 -9 -88 -11 -99 -4 -21 -17 -315 -17
-392 0 -75 13 -330 19 -357 2 -13 7 -43 9 -68 16 -141 73 -344 133 -470 124
-262 373 -457 609 -477 187 -16 313 88 668 557 381 503 846 1245 1200 1915 32
61 60 112 63 115 2 3 1 -20 -3 -50 -5 -30 -9 -64 -10 -75 -2 -11 -6 -42 -9
-70 -4 -27 -8 -63 -10 -80 -4 -33 -15 -110 -22 -165 -3 -19 -7 -57 -9 -85 -3
-27 -9 -90 -15 -140 -12 -109 -19 -189 -25 -275 -3 -36 -7 -87 -9 -115 -29
-299 -35 -999 -11 -1145 2 -14 7 -61 10 -105 5 -68 23 -197 40 -295 3 -14 7
-38 10 -55 22 -120 88 -329 140 -441 138 -300 385 -488 651 -496 179 -5 291
68 440 287 55 82 244 390 244 399 0 3 21 39 46 82 25 43 50 87 55 98 5 12 19
37 30 56 12 19 42 73 67 120 24 47 48 90 52 95 4 6 33 60 65 120 53 102 85
162 185 350 101 190 378 727 537 1042 65 127 118 231 119 230 1 -1 -2 -29 -6
-62 -8 -65 -5 -404 3 -445 3 -14 8 -47 12 -75 20 -158 81 -358 157 -509 84
-169 171 -289 296 -411 50 -50 205 -175 216 -175 2 0 33 -17 67 -39 83 -49
259 -121 338 -136 9 -1 34 -8 56 -13 119 -32 337 -34 500 -6 17 2 75 18 129
35 387 119 722 460 982 999 62 128 145 333 184 455 18 55 35 103 39 107 3 4
42 10 86 13 333 24 724 193 1030 443 157 129 337 317 467 488 52 68 178 252
178 259 0 3 11 22 23 43 43 67 109 193 117 222 12 41 -11 70 -55 70 -33 0 -37
-4 -71 -72 -341 -680 -885 -1157 -1479 -1299 -94 -22 -102 -23 -202 -34 l-62
-7 10 37 c6 21 12 45 14 54 2 9 13 60 25 115 12 54 23 108 26 120 2 11 6 32 9
46 11 59 52 325 59 390 23 209 24 228 32 400 12 245 7 590 -10 705 -3 17 -8
59 -11 95 -4 36 -9 74 -11 85 -2 11 -6 42 -9 69 -4 27 -9 58 -11 70 -3 12 -9
41 -14 66 -77 370 -192 658 -361 905 -94 138 -174 227 -300 336 -246 212 -567
322 -914 314 -60 -2 -126 -5 -145 -9 -19 -3 -53 -8 -74 -11 -207 -29 -466
-140 -646 -278 -363 -278 -556 -705 -555 -1227 1 -106 9 -237 19 -285 2 -11 7
-40 11 -65 25 -161 100 -387 184 -554 l68 -133 -28 -39 c-90 -130 -198 -357
-255 -535 -23 -72 -277 -588 -536 -1089 -178 -342 -224 -430 -263 -505 -23
-44 -64 -120 -90 -170 -26 -49 -63 -119 -83 -155 -19 -36 -53 -99 -75 -140
-22 -41 -50 -93 -62 -115 -12 -22 -43 -80 -70 -130 -27 -49 -59 -107 -72 -127
-13 -21 -23 -39 -23 -41 0 -7 -182 -324 -251 -437 -148 -244 -235 -340 -309
-340 -25 0 -77 54 -96 99 -8 20 -26 74 -40 121 -21 72 -32 126 -59 288 -2 13
-7 56 -10 95 -4 40 -9 83 -11 97 -20 127 -20 777 0 1005 2 22 7 87 11 145 3
58 8 116 10 130 2 14 7 59 10 100 8 112 22 248 30 300 2 14 7 52 10 85 6 63
12 113 20 180 3 22 8 58 11 80 4 38 11 89 19 145 2 14 9 61 15 105 6 44 12 91
15 105 2 14 9 61 15 105 14 100 18 126 30 195 5 30 11 69 14 85 10 70 19 121
22 140 4 17 20 116 41 240 3 17 18 102 35 190 16 88 31 174 34 190 3 17 9 53
15 80 17 87 19 98 25 139 3 22 7 43 9 46 2 3 6 21 9 41 3 19 19 105 37 190 17
84 33 165 35 179 2 14 9 45 14 70 6 25 12 54 14 65 25 126 111 514 191 860 39
169 38 166 48 205 4 14 18 75 32 135 14 61 35 147 46 191 11 45 21 90 23 100
2 11 14 57 26 104 12 47 24 96 27 109 2 14 22 99 44 189 22 90 42 171 44 180
3 10 27 112 55 227 28 116 53 218 55 228 2 10 6 26 9 35 3 9 8 28 10 42 3 14
14 61 23 105 l18 80 85 -2 c78 -2 190 -8 315 -17 28 -2 95 -7 150 -10 55 -3
132 -8 170 -11 39 -3 115 -7 170 -11 55 -3 129 -7 165 -9 63 -4 257 -14 390
-20 192 -9 420 -18 533 -20 70 -1 130 -4 132 -7 3 -3 23 -2 45 2 22 4 40 5 40
1 0 -3 165 -5 367 -4 203 0 368 2 368 3 0 0 61 3 135 5 74 2 171 6 215 10 44
3 116 8 160 11 98 7 158 12 210 19 37 5 92 11 175 20 19 3 53 7 75 11 22 4 49
8 60 10 83 11 310 56 375 73 240 65 383 117 535 193 163 83 298 184 395 296
30 35 60 69 65 75 33 37 92 153 132 257 32 83 40 207 16 254 -38 75 -89 105
-172 100 -117 -9 -168 -83 -147 -219 2 -16 7 -47 10 -69 3 -21 8 -46 10 -55
22 -71 29 -182 16 -231 -13 -48 -70 -111 -165 -181 -33 -24 -62 -46 -65 -49
-46 -46 -420 -207 -551 -236 -10 -2 -27 -6 -36 -8 -155 -38 -240 -57 -272 -60
-22 -2 -43 -6 -48 -9 -4 -2 -33 -8 -64 -11 -31 -4 -67 -9 -80 -11 -13 -3 -44
-7 -69 -11 -228 -28 -325 -36 -560 -49 -97 -5 -528 -18 -547 -16 -25 2 -39 2
-113 1 -102 -1 -638 9 -725 15 -38 2 -140 7 -225 10 -85 4 -184 9 -220 11 -36
2 -112 6 -170 9 -58 2 -134 7 -170 10 -36 3 -108 8 -160 10 -52 3 -115 7 -140
9 -25 2 -90 7 -145 11 -55 3 -125 8 -155 11 -52 3 -139 9 -290 19 -36 3 -76 7
-90 10 -13 2 -39 6 -57 7 -18 1 -33 7 -33 13 0 5 33 129 73 275 40 146 72 274
72 285 -1 11 -2 32 -3 46 -3 38 -70 105 -135 134 -31 14 -88 33 -128 41 -67
14 -208 20 -254 10 -11 -2 -40 -7 -65 -11 -102 -17 -222 -91 -253 -158 -9 -18
-46 -150 -82 -292 -37 -143 -69 -263 -72 -268 -2 -4 -19 -5 -36 -2 -18 3 -72
7 -122 10 -49 3 -119 7 -155 10 -88 6 -217 14 -320 20 -47 3 -121 7 -165 10
-218 14 -421 24 -845 41 -298 12 -1415 7 -1415 -6 0 0 -38 -3 -85 -5 -47 -3
-110 -7 -140 -10 -30 -3 -84 -8 -120 -10 -36 -3 -99 -9 -140 -14 -41 -6 -100
-13 -130 -16 -74 -9 -100 -13 -130 -19 -14 -3 -43 -7 -65 -10 -22 -3 -53 -8
-70 -11 -16 -3 -41 -7 -55 -9 -14 -3 -25 -5 -25 -6 0 -1 -11 -3 -25 -5 -14 -2
-36 -6 -50 -9 -14 -3 -45 -10 -70 -15 -25 -5 -81 -19 -125 -31 -44 -12 -84
-23 -90 -24 -5 -1 -16 -5 -22 -9 -7 -5 -13 -6 -13 -3 0 3 -19 -2 -42 -10 -24
-9 -47 -17 -53 -18 -19 -4 -120 -39 -130 -45 -5 -3 -15 -6 -21 -7 -17 -3 -152
-63 -244 -109 -245 -123 -469 -312 -592 -499 -15 -22 -31 -45 -36 -51 -7 -10
-18 -30 -68 -127 -39 -79 -91 -240 -93 -294 -3 -63 14 -129 40 -157 10 -11 19
-23 19 -26 0 -15 71 -35 117 -34 103 4 147 48 147 147 0 59 -7 126 -18 156 -8
25 -17 91 -23 173 -7 114 11 158 117 281 139 162 363 308 633 415 80 32 240
84 305 100 23 6 61 16 85 22 23 6 47 12 52 13 13 4 75 16 100 21 11 2 20 4 20
5 0 1 9 3 20 5 11 2 36 7 55 10 19 4 46 9 60 11 14 2 41 7 60 10 19 3 49 8 65
10 17 2 46 6 65 8 19 3 53 8 75 11 22 2 60 7 85 11 25 3 68 7 95 9 28 2 75 6
105 10 97 9 300 22 500 30 147 5 754 6 940 0 230 -7 425 -14 510 -20 41 -3
122 -7 180 -10 148 -7 275 -14 345 -20 33 -3 101 -7 150 -9 50 -3 117 -7 150
-10 62 -6 170 -14 265 -21 30 -2 84 -7 120 -10 36 -3 98 -7 139 -10 40 -2 75
-6 77 -8 2 -2 -12 -59 -30 -128 -67 -244 -289 -1142 -357 -1444 -63 -278 -148
-661 -153 -685 -2 -14 -27 -133 -54 -265 -64 -306 -133 -649 -152 -750 -5 -27
-25 -135 -44 -240 -19 -104 -38 -206 -41 -225 -7 -45 -17 -100 -21 -125 -2
-11 -9 -49 -15 -85 -5 -36 -12 -78 -15 -95 -5 -29 -39 -100 -127 -265 -574
-1080 -1183 -2022 -1578 -2445 -132 -140 -184 -163 -233 -105 -26 31 -54 107
-62 170 -3 19 -7 46 -9 60 -6 28 -6 312 -1 350 2 14 7 61 11 105 4 44 8 87 10
95 2 8 6 44 10 80 4 36 8 67 10 70 1 3 6 32 9 65 4 33 9 67 11 75 2 8 6 33 10
55 5 36 15 99 30 182 20 114 67 384 71 408 3 17 11 66 19 110 8 44 16 96 19
115 3 19 12 78 20 130 8 52 18 118 21 145 3 28 8 64 10 80 2 17 7 57 10 90 3
33 8 71 10 85 3 14 7 61 10 105 3 44 8 105 11 135 7 75 6 353 -1 420 -41 405
-171 617 -430 704 -239 81 -429 2 -629 -264 -104 -137 -186 -280 -349 -598
-122 -241 -168 -337 -299 -622 -16 -36 -45 -96 -63 -135 -18 -38 -75 -160
-125 -270 -226 -490 -271 -586 -319 -689 -28 -59 -51 -110 -51 -112 0 -1 -29
-64 -65 -139 -36 -75 -65 -138 -65 -140 0 -2 -22 -50 -48 -107 -27 -56 -82
-175 -122 -263 -80 -173 -123 -245 -145 -245 -15 0 -17 9 -19 99 -2 57 7 157
30 326 6 48 6 48 39 245 14 85 29 178 35 205 5 28 12 66 15 85 3 19 10 58 15
85 5 28 12 61 14 75 2 14 14 75 26 135 12 61 28 144 36 185 17 91 11 62 73
360 27 135 75 361 105 504 31 142 58 268 60 280 2 11 11 51 20 87 8 37 17 78
20 90 2 13 11 53 20 89 8 36 17 76 20 90 3 14 10 42 15 63 11 44 0 100 -27
136 -22 30 -131 88 -182 97 -153 26 -292 19 -420 -23 -158 -51 -232 -129 -254
-268 -2 -16 -16 -84 -30 -150 -14 -66 -32 -149 -39 -185 -13 -59 -130 -307
-264 -560 -22 -41 -66 -124 -98 -185 -32 -60 -71 -132 -87 -158 -15 -26 -28
-50 -28 -52 0 -10 -216 -372 -317 -530 -98 -154 -262 -398 -290 -430 -5 -5
-22 -28 -38 -50 -29 -39 -169 -215 -217 -271 -13 -15 -72 -79 -133 -142 -243
-253 -473 -412 -705 -487 -69 -22 -105 -28 -190 -29 -98 -1 -109 1 -170 30
-139 67 -232 211 -280 432 -32 151 -41 235 -42 419 0 133 5 254 17 353 2 19 7
64 11 100 3 36 7 72 9 80 2 14 11 67 21 135 42 278 159 708 266 980 36 92 41
100 66 101 325 8 663 109 899 268 331 223 443 610 241 831 -56 62 -151 114
-258 142 -68 18 -315 25 -395 11 -144 -25 -256 -63 -410 -140 -415 -208 -773
-590 -1004 -1070 -49 -102 -119 -266 -127 -297 -42 -167 -238 -546 -669 -1289
-140 -242 -496 -803 -556 -876 -5 -6 -53 -72 -106 -146 -130 -180 -372 -487
-447 -566 -6 -6 -42 -46 -81 -89 -152 -170 -339 -351 -515 -499 -79 -66 -272
-202 -399 -280 -98 -60 -342 -189 -421 -221 -409 -168 -756 -233 -1085 -202
-469 43 -907 316 -1192 744 -33 48 -70 108 -83 133 -14 25 -29 52 -36 60 -9
12 -84 173 -124 265 -11 25 -52 142 -78 220 -19 56 -69 234 -77 273 -2 9 -12
58 -23 107 -11 50 -23 106 -26 125 -3 19 -8 46 -10 60 -20 110 -35 206 -41
275 -3 28 -7 61 -10 73 -2 11 -7 61 -10 109 -4 48 -9 99 -11 113 -24 189 -24
1085 0 1290 3 19 7 80 11 135 3 55 8 114 10 130 2 17 7 59 10 95 8 89 13 148
19 195 5 40 13 105 22 178 5 49 14 116 19 147 2 14 6 45 10 70 3 25 8 56 10
70 2 14 7 45 10 70 4 25 8 59 11 75 3 17 18 109 35 205 33 198 32 192 64 355
13 66 26 131 29 145 9 54 96 441 121 540 14 58 28 116 31 130 3 14 8 34 11 45
4 11 8 25 9 30 5 25 109 401 136 490 85 282 240 736 260 762 5 6 15 10 21 8
12 -5 44 -7 292 -22 243 -14 793 -8 995 12 153 16 227 24 270 30 14 2 61 9
106 15 44 6 89 12 100 14 10 2 39 7 64 11 56 9 78 13 110 20 14 3 36 8 50 11
14 3 36 7 50 9 14 2 99 22 190 45 363 90 775 249 1065 410 33 18 76 42 95 53
19 10 94 57 165 105 591 390 980 916 1101 1487 27 126 25 358 -5 485 -102 446
-476 736 -1051 815 -50 7 -505 17 -511 11z m616 -159 c11 -2 40 -8 65 -12 124
-19 291 -84 397 -156 193 -130 325 -341 362 -579 12 -74 16 -270 6 -313 -2
-12 -7 -40 -10 -62 -21 -152 -104 -376 -202 -548 -301 -530 -821 -950 -1534
-1240 -109 -45 -372 -136 -439 -153 -219 -55 -341 -84 -365 -88 -16 -3 -61
-12 -100 -20 -38 -8 -90 -17 -115 -20 -25 -3 -55 -8 -67 -10 -76 -15 -318 -42
-468 -51 -60 -4 -126 -9 -145 -10 -52 -5 -598 -5 -650 -1 -25 3 -92 7 -150 10
-93 6 -197 15 -240 21 -19 2 -21 -7 24 105 156 390 387 821 647 1205 74 110
175 252 206 290 5 6 40 51 78 100 70 91 214 262 289 344 63 69 315 321 372
371 426 379 827 618 1229 733 150 43 281 70 394 82 30 3 56 7 58 9 5 5 334 -1
358 -7z m14055 -4011 c227 -29 459 -133 645 -289 182 -153 347 -386 460 -652
60 -141 138 -417 165 -585 7 -41 14 -82 15 -90 2 -8 6 -43 10 -77 4 -35 8 -75
10 -90 24 -191 24 -672 0 -908 -16 -158 -33 -305 -40 -345 -1 -8 -6 -35 -10
-60 -14 -91 -17 -107 -37 -210 -11 -58 -22 -114 -24 -125 -2 -11 -16 -73 -30
-137 -32 -137 -13 -126 -179 -114 -470 34 -962 219 -1400 525 -91 63 -281 219
-323 264 l-24 25 32 78 c37 92 116 243 229 439 58 99 81 149 81 173 0 166
-279 285 -463 197 -41 -19 -94 -63 -194 -161 -76 -73 -140 -134 -142 -134 -3
0 -12 -7 -21 -15 -16 -14 -20 -10 -51 47 -89 165 -159 361 -183 516 -22 137
-26 183 -27 312 -5 580 288 1084 755 1300 133 62 312 111 446 122 57 5 241 1
300 -6z m-10642 -1591 c34 -21 65 -67 87 -131 34 -99 13 -195 -66 -311 -36
-53 -137 -156 -196 -200 -21 -15 -47 -36 -58 -46 -19 -17 -138 -79 -150 -77
-3 0 -18 -6 -33 -14 -73 -37 -287 -72 -409 -67 -27 1 -28 0 45 151 67 140 156
289 235 392 184 241 424 374 545 303z m9917 -1479 c39 -34 72 -63 75 -66 10
-11 188 -139 245 -177 148 -98 367 -213 545 -285 72 -30 183 -70 200 -73 3 0
28 -8 55 -17 161 -54 408 -100 600 -113 55 -4 101 -8 102 -9 2 -1 -15 -54 -36
-117 -182 -536 -475 -983 -777 -1185 -174 -116 -336 -172 -500 -175 -288 -5
-528 155 -670 446 -38 80 -92 255 -109 355 -35 217 -24 605 25 865 5 28 12 64
15 80 29 173 133 547 149 538 6 -4 43 -34 81 -67z"/>
<path d="M20830 21564 c-90 -33 -156 -95 -202 -190 -33 -71 -37 -85 -45 -179
-14 -167 70 -331 220 -430 31 -21 57 -42 57 -47 0 -14 -195 -388 -277 -532
-217 -379 -470 -695 -645 -808 -148 -96 -275 -124 -355 -78 -70 39 -110 107
-138 239 -14 64 -14 343 0 430 40 258 141 618 173 622 4 0 23 2 42 4 147 15
238 39 347 95 146 73 237 195 236 315 0 110 -57 177 -177 208 -56 15 -191 16
-233 3 -12 -4 -31 -9 -44 -11 -39 -8 -179 -78 -239 -120 -172 -121 -321 -308
-411 -513 -49 -113 -94 -178 -196 -278 -114 -113 -259 -201 -438 -267 -70 -26
-239 -77 -256 -77 -5 0 0 24 11 53 69 179 107 396 104 593 -2 158 -4 173 -34
274 -59 198 -212 305 -409 286 -181 -18 -369 -191 -540 -496 -24 -41 -47 -79
-53 -85 -8 -7 -9 -6 -4 2 4 7 9 21 11 32 2 10 18 84 35 165 41 188 40 177 24
207 -38 76 -258 88 -368 20 -18 -12 -41 -36 -49 -54 -17 -35 -51 -198 -72
-342 -4 -22 -8 -47 -10 -55 -2 -8 -7 -37 -11 -65 -3 -27 -8 -57 -9 -67 -2 -9
-6 -38 -10 -65 -4 -26 -9 -59 -11 -73 -2 -14 -11 -77 -19 -140 -9 -63 -18
-126 -20 -140 -3 -14 -9 -59 -15 -100 -37 -246 -28 -221 -134 -421 -120 -225
-370 -734 -446 -904 -184 -412 -341 -871 -374 -1090 -7 -46 -17 -101 -23 -130
-2 -11 -6 -72 -8 -135 -10 -291 74 -423 259 -407 269 24 497 292 673 792 21
60 77 240 88 285 21 85 55 230 59 250 2 14 16 81 30 150 14 69 28 139 31 155
2 17 7 41 10 55 5 23 17 92 30 165 2 17 7 41 10 55 3 14 10 54 16 90 12 80 10
69 54 335 20 121 38 232 41 248 6 39 63 383 80 482 3 17 16 89 29 160 59 316
58 316 127 447 169 319 322 516 443 568 162 69 227 -32 219 -342 -5 -194 -11
-252 -50 -448 -43 -219 -94 -389 -118 -391 -6 0 -18 -2 -26 -4 -8 -2 -31 -6
-50 -9 -19 -4 -46 -9 -60 -11 -14 -3 -34 -7 -45 -9 -178 -34 -346 -147 -404
-271 -39 -83 -35 -185 8 -238 80 -95 298 -81 492 34 142 83 272 224 392 425
l53 89 80 22 c43 12 81 22 84 22 3 1 48 15 100 32 198 65 375 169 508 299 41
39 71 63 68 53 -17 -57 -38 -223 -40 -313 -5 -203 29 -386 97 -514 70 -134
217 -242 370 -271 230 -44 445 42 673 270 219 219 442 561 698 1073 86 173 70
163 181 112 71 -32 123 -73 137 -109 10 -26 12 -100 4 -136 -2 -11 -27 -112
-54 -225 -43 -174 -64 -269 -86 -386 -3 -12 -7 -39 -10 -60 -4 -22 -8 -46 -11
-54 -2 -8 -6 -40 -10 -70 -3 -30 -10 -84 -14 -120 -15 -114 -13 -368 3 -451
42 -217 145 -332 294 -330 117 1 232 86 348 256 70 103 221 353 284 470 24 44
52 94 61 110 10 17 37 66 60 110 23 44 51 95 61 114 11 19 56 104 101 190 45
86 98 188 119 226 21 39 40 77 44 85 3 8 9 22 13 30 175 336 221 434 216 451
-8 24 -27 24 -47 2 -8 -10 -60 -108 -116 -218 -130 -258 -188 -370 -273 -530
-39 -71 -81 -152 -95 -180 -14 -27 -35 -68 -48 -90 -12 -22 -37 -67 -55 -100
-300 -544 -465 -787 -559 -825 -31 -12 -35 -11 -55 9 -20 20 -22 32 -22 134 0
62 3 130 7 152 15 85 30 159 42 213 26 111 129 573 133 592 2 14 15 70 28 125
35 150 39 181 39 295 0 149 -26 209 -114 265 -34 21 -141 59 -195 69 -99 18
-295 94 -295 114 0 6 20 61 44 124 74 191 107 335 108 467 1 91 -22 145 -73
175 -44 26 -150 31 -209 10z m186 -72 c44 -29 48 -164 8 -322 -27 -111 -97
-307 -121 -339 -7 -9 -35 26 -52 63 -31 71 -33 79 -36 163 -8 228 114 493 201
435z m-880 -382 c34 -21 45 -48 45 -106 0 -105 -86 -211 -224 -277 -76 -36
-199 -68 -270 -71 -37 -1 -42 1 -38 19 10 60 138 276 203 345 96 101 209 137
284 90z m-2306 -1317 c0 -11 -93 -180 -128 -231 -81 -123 -188 -211 -274 -226
-115 -20 -174 97 -112 222 54 110 198 191 396 226 78 13 118 16 118 9z m-1096
-340 c-7 -47 -14 -87 -19 -113 -3 -14 -12 -68 -21 -120 -8 -52 -17 -106 -20
-120 -2 -14 -11 -65 -19 -115 -8 -49 -17 -101 -20 -115 -3 -14 -14 -74 -25
-135 -11 -60 -21 -120 -24 -131 -2 -12 -7 -38 -10 -58 -3 -21 -13 -72 -22
-114 -9 -42 -18 -86 -20 -97 -2 -11 -6 -31 -9 -45 -2 -14 -7 -38 -10 -55 -63
-333 -190 -819 -268 -1025 -80 -213 -157 -320 -238 -334 -115 -18 -164 208
-114 519 11 65 14 82 29 150 94 430 270 869 648 1618 89 174 162 317 164 317
1 0 1 -12 -2 -27z"/>
<path d="M13388 16404 c-2 -1 -32 -5 -68 -8 -258 -25 -561 -90 -807 -171 -59
-20 -117 -40 -128 -45 -11 -5 -76 -32 -145 -60 -186 -77 -339 -155 -523 -267
-80 -48 -226 -144 -252 -165 -5 -4 -53 -40 -105 -79 -84 -64 -186 -144 -200
-159 -3 -3 -34 -30 -70 -60 -189 -158 -539 -533 -727 -780 -32 -41 -60 -77
-63 -80 -5 -5 -14 -17 -135 -190 -194 -276 -393 -617 -566 -966 l-119 -241
-97 22 c-293 67 -660 181 -896 279 -562 235 -933 541 -1083 896 -18 44 -32 80
-30 80 1 0 -3 26 -9 57 -15 74 -3 141 37 213 72 128 88 164 88 201 0 96 -53
152 -155 164 -19 3 -80 -26 -103 -48 -33 -31 -61 -89 -66 -136 -3 -43 17 -210
35 -281 28 -112 63 -222 96 -300 139 -329 484 -628 1009 -876 63 -30 117 -54
120 -54 4 0 31 -12 119 -51 64 -29 349 -125 470 -160 133 -38 410 -109 424
-109 9 0 0 -24 -51 -139 -11 -24 -44 -105 -74 -180 -30 -75 -59 -145 -64 -156
-5 -11 -16 -38 -23 -60 -8 -22 -31 -85 -51 -140 -74 -199 -217 -634 -252 -765
-2 -8 -13 -46 -24 -85 -11 -38 -22 -79 -25 -90 -2 -11 -12 -47 -21 -80 -9 -33
-17 -64 -18 -70 -2 -5 -8 -28 -14 -50 -6 -22 -13 -51 -16 -65 -3 -14 -23 -101
-45 -195 -33 -143 -57 -257 -96 -460 -3 -16 -8 -46 -11 -65 -3 -19 -7 -42 -9
-50 -2 -8 -7 -35 -10 -60 -3 -25 -13 -88 -21 -140 -25 -158 -31 -202 -39 -280
-4 -30 -8 -66 -10 -80 -3 -14 -7 -52 -10 -85 -2 -33 -7 -80 -10 -105 -8 -78
-19 -231 -30 -430 -6 -104 -7 -605 -1 -715 6 -111 15 -245 21 -305 20 -204 34
-319 45 -375 5 -27 12 -68 15 -90 28 -202 109 -534 186 -765 252 -762 654
-1314 1194 -1637 175 -104 410 -204 568 -239 19 -5 26 -6 117 -27 36 -9 92
-19 125 -22 33 -4 62 -9 65 -10 8 -5 234 -18 295 -18 87 0 288 14 350 23 33 5
78 12 100 15 98 15 379 86 445 112 8 3 20 7 27 9 6 1 76 28 155 59 358 143
695 349 1023 624 128 107 410 391 520 522 11 13 43 51 70 84 28 33 52 62 56
65 7 7 99 123 181 230 302 394 779 1135 1078 1675 18 33 62 113 98 178 35 64
66 117 68 117 1 0 1 -10 -1 -21 -3 -12 -7 -54 -11 -93 -3 -39 -8 -82 -10 -96
-5 -31 -5 -327 0 -395 24 -291 87 -542 182 -723 137 -262 339 -437 606 -527
315 -105 646 -73 958 93 380 203 769 608 1175 1222 113 171 275 436 339 555
15 28 36 64 46 82 10 17 38 67 61 110 23 43 56 105 74 138 18 33 60 114 94
179 34 66 61 115 61 110 0 -5 -5 -27 -9 -49 -5 -22 -12 -56 -15 -75 -3 -19
-10 -57 -15 -85 -6 -27 -13 -61 -15 -75 -3 -14 -9 -47 -15 -75 -5 -27 -12 -70
-16 -95 -3 -25 -8 -52 -10 -60 -4 -14 -8 -37 -21 -115 -2 -16 -13 -79 -24
-140 -10 -60 -21 -127 -24 -147 -9 -57 -17 -109 -22 -143 -9 -57 -13 -80 -18
-125 -3 -25 -8 -54 -10 -65 -2 -11 -7 -45 -10 -76 -4 -31 -9 -67 -12 -80 -9
-43 -11 -332 -3 -404 13 -102 46 -221 82 -294 41 -83 134 -179 207 -213 76
-35 136 -48 225 -49 89 0 133 9 203 42 72 35 137 96 189 177 33 51 143 264
143 276 0 3 14 36 31 73 17 38 51 113 76 168 25 55 65 142 89 194 24 51 44 95
44 96 0 2 23 52 51 112 28 59 70 151 94 203 24 52 64 140 90 195 26 55 76 163
112 240 36 77 80 172 98 210 18 39 46 99 63 135 346 757 464 995 604 1219 201
321 300 350 302 91 0 -63 -10 -225 -18 -265 -3 -19 -12 -81 -22 -155 -6 -41
-40 -234 -54 -300 -5 -25 -14 -72 -20 -105 -5 -33 -12 -71 -15 -85 -13 -68
-19 -96 -20 -110 -1 -8 -5 -31 -9 -50 -8 -46 -15 -87 -22 -130 -3 -19 -9 -60
-14 -90 -5 -30 -12 -75 -15 -100 -3 -25 -10 -71 -15 -104 -5 -32 -9 -61 -8
-65 1 -3 -1 -28 -5 -56 -6 -46 -15 -128 -23 -200 -1 -16 -6 -95 -10 -175 -32
-676 77 -1123 339 -1382 136 -136 295 -211 447 -212 158 -2 230 46 427 280
282 336 617 816 930 1334 51 85 98 162 103 170 8 13 37 64 133 230 41 70 211
377 264 475 l54 100 -6 -50 c-3 -27 -7 -65 -10 -83 -10 -80 -16 -119 -20 -142
-2 -14 -7 -50 -10 -80 -6 -55 -10 -90 -19 -165 -5 -37 -8 -69 -21 -192 -3 -27
-7 -77 -10 -113 -3 -36 -7 -85 -10 -110 -2 -25 -7 -85 -10 -135 -3 -49 -8
-117 -10 -150 -21 -280 -21 -763 -1 -980 3 -27 8 -81 11 -120 12 -134 55 -372
90 -500 102 -370 272 -611 507 -719 103 -46 270 -70 361 -50 101 21 217 122
323 279 63 93 223 356 275 454 17 31 40 72 51 91 11 19 36 64 56 100 19 36 42
79 52 95 9 17 39 71 65 120 26 50 60 113 75 140 76 140 262 493 412 785 106
204 328 639 380 740 23 47 35 64 32 45 -9 -50 -12 -411 -4 -457 4 -24 11 -67
14 -97 20 -169 100 -419 182 -568 169 -305 417 -529 720 -650 86 -35 188 -66
204 -63 3 1 17 -3 32 -9 79 -30 321 -33 478 -6 281 48 557 218 780 481 199
235 408 635 535 1024 16 47 31 88 34 91 3 4 35 10 71 13 120 12 155 17 239 37
269 62 522 187 781 387 117 90 369 346 460 467 41 55 77 102 80 105 18 16 147
223 203 325 81 149 86 175 40 198 -16 7 -35 12 -45 10 -9 -2 -33 -36 -54 -76
-407 -782 -1012 -1261 -1685 -1333 l-57 -6 29 118 c15 65 30 135 33 156 3 22
8 43 10 47 3 4 7 25 10 46 3 22 7 49 9 60 3 11 8 40 12 65 4 25 9 52 10 60 2
8 6 38 9 65 4 28 9 65 12 83 2 17 6 47 8 65 3 17 8 64 11 102 4 39 8 86 10
105 23 224 24 760 1 900 -3 14 -7 52 -10 85 -3 33 -8 69 -10 80 -2 11 -7 43
-10 70 -4 28 -14 84 -22 125 -113 567 -335 985 -674 1268 -90 75 -99 82 -107
82 -3 0 -14 6 -22 14 -49 43 -252 133 -373 165 -211 55 -481 61 -678 15 -14
-3 -35 -8 -46 -10 -36 -7 -157 -44 -189 -59 -16 -7 -55 -23 -85 -36 -30 -12
-59 -26 -65 -30 -5 -4 -32 -19 -60 -35 -142 -78 -337 -257 -431 -394 -141
-206 -227 -443 -259 -710 -11 -95 -12 -385 -1 -435 2 -11 7 -45 11 -75 22
-180 110 -453 206 -637 31 -62 54 -115 49 -118 -4 -3 -34 -48 -66 -102 -72
-120 -162 -319 -204 -449 -38 -116 -311 -662 -803 -1604 -33 -63 -76 -144 -95
-180 -19 -36 -59 -112 -90 -170 -30 -58 -62 -118 -72 -135 -10 -16 -37 -66
-60 -110 -46 -87 -42 -79 -205 -370 -180 -321 -300 -516 -368 -595 -45 -53
-109 -99 -138 -100 -74 0 -142 144 -184 390 -9 52 -18 105 -20 118 -2 13 -7
53 -10 90 -3 37 -8 81 -10 97 -21 164 -21 791 0 1008 2 22 6 85 10 140 3 56 8
118 10 137 2 19 6 62 9 95 13 150 17 192 22 225 2 19 6 58 9 85 3 28 7 64 9
80 2 17 7 59 11 95 4 36 9 74 11 84 2 11 6 44 9 75 3 31 7 67 10 80 2 14 7 47
10 75 3 28 8 60 10 71 3 11 6 36 9 55 13 103 18 137 22 160 2 14 7 41 9 60 29
197 141 860 174 1025 11 55 22 112 25 128 3 15 10 55 16 90 6 34 32 163 56
287 25 124 48 236 50 250 6 33 47 221 85 390 17 74 40 176 50 225 11 50 22 97
24 105 2 8 13 56 24 105 11 50 37 158 56 240 20 83 37 159 40 170 7 33 11 52
59 245 25 102 47 196 50 210 3 14 32 135 65 270 34 135 63 254 65 265 2 11 11
49 20 85 9 36 18 74 20 85 3 11 22 94 44 185 22 91 44 183 49 205 l9 40 69 -1
c78 -2 252 -12 333 -19 29 -2 99 -7 155 -11 56 -3 125 -7 152 -9 28 -1 102 -6
165 -9 63 -4 147 -9 185 -11 729 -43 1383 -57 1930 -42 132 4 263 9 290 11 92
8 209 17 265 20 30 2 78 7 105 10 74 11 104 14 170 21 56 6 71 8 135 20 14 3
45 8 69 11 52 7 345 69 379 79 7 3 14 5 17 5 3 0 23 7 45 15 22 8 42 15 45 15
14 2 146 47 185 63 14 6 27 11 30 12 107 36 348 178 436 257 85 77 163 168
213 251 39 64 71 131 71 150 0 9 4 17 9 17 9 0 42 131 43 175 2 74 -33 150
-83 179 -56 33 -153 25 -211 -16 -51 -36 -61 -133 -29 -277 27 -122 35 -211
21 -261 -16 -61 -134 -171 -275 -257 -132 -82 -429 -198 -583 -228 -9 -2 -44
-10 -77 -18 -33 -9 -76 -18 -95 -21 -39 -6 -71 -12 -145 -26 -27 -5 -70 -12
-95 -15 -25 -3 -58 -8 -75 -10 -54 -7 -119 -15 -165 -20 -25 -2 -72 -7 -105
-10 -247 -24 -421 -29 -955 -29 -462 0 -627 3 -955 19 -44 2 -132 6 -195 10
-63 3 -146 7 -185 10 -38 3 -119 7 -180 10 -60 3 -130 7 -155 10 -25 3 -92 7
-150 10 -58 3 -123 7 -145 10 -22 2 -87 7 -145 11 -58 3 -123 8 -145 9 -22 2
-85 6 -140 10 -55 3 -111 9 -125 12 -14 3 -32 7 -40 7 -22 1 -16 44 29 203
107 379 104 365 90 416 -29 108 -196 185 -405 188 -183 2 -339 -53 -409 -145
-17 -23 -39 -86 -70 -207 -25 -96 -58 -221 -73 -279 l-27 -105 -50 2 c-28 1
-86 4 -130 8 -44 3 -109 8 -145 10 -36 2 -99 7 -140 10 -41 2 -115 7 -165 10
-49 2 -126 7 -170 10 -44 3 -125 8 -180 10 -94 5 -142 8 -395 19 -718 34
-1588 26 -2020 -19 -25 -3 -69 -7 -98 -9 -29 -3 -70 -7 -90 -10 -20 -3 -62 -8
-92 -11 -30 -3 -66 -7 -80 -10 -34 -7 -78 -14 -122 -19 -20 -2 -45 -7 -55 -10
-10 -2 -35 -7 -55 -10 -88 -13 -406 -89 -471 -112 -23 -9 -49 -17 -57 -19 -64
-14 -243 -87 -370 -151 -104 -52 -134 -69 -204 -117 -34 -23 -64 -41 -68 -39
-5 1 -8 -2 -8 -6 0 -5 -19 -23 -42 -40 -97 -71 -225 -207 -305 -327 -65 -97
-140 -260 -170 -370 -15 -54 -11 -161 7 -201 15 -35 60 -94 60 -80 0 3 15 -1
33 -8 63 -26 160 -1 194 51 18 27 23 123 10 188 -3 17 -9 44 -12 60 -25 121
-30 236 -11 290 16 50 78 134 152 209 60 61 177 156 192 156 6 0 12 4 14 9 8
24 229 139 383 201 70 27 253 89 288 95 10 3 27 7 37 10 10 3 27 7 37 9 10 2
45 11 78 19 33 8 78 18 100 23 22 4 45 8 50 9 6 2 27 6 49 9 21 3 41 8 45 10
3 2 33 7 66 11 67 9 98 13 135 19 14 2 50 7 80 10 30 4 66 9 80 11 27 5 137
15 210 20 25 2 45 4 45 5 0 2 326 20 460 25 126 6 744 5 915 0 345 -11 604
-22 891 -40 42 -3 116 -7 165 -10 49 -3 109 -7 134 -9 25 -2 92 -7 150 -10 58
-4 119 -9 135 -11 17 -2 75 -7 130 -10 159 -10 338 -25 342 -29 1 -1 -11 -51
-28 -111 -16 -61 -31 -119 -34 -130 -2 -11 -6 -29 -9 -40 -8 -33 -46 -179 -50
-195 -3 -8 -9 -33 -14 -55 -6 -22 -29 -114 -52 -205 -23 -91 -43 -172 -45
-180 -1 -8 -8 -33 -13 -55 -6 -22 -13 -51 -16 -65 -3 -14 -17 -72 -31 -130
-41 -166 -204 -873 -221 -960 -3 -14 -9 -44 -15 -68 -5 -23 -12 -59 -15 -80
-3 -20 -8 -41 -11 -45 -3 -5 -7 -23 -10 -40 -4 -26 -17 -91 -38 -187 -28 -132
-165 -828 -189 -963 -3 -15 -10 -53 -15 -85 -6 -31 -13 -70 -16 -87 -2 -16 -7
-41 -10 -55 -3 -14 -8 -45 -11 -70 -3 -25 -7 -52 -9 -60 -2 -8 -7 -31 -10 -50
-3 -19 -8 -47 -11 -62 -3 -15 -7 -41 -9 -59 -6 -47 -179 -376 -465 -884 -81
-144 -313 -529 -448 -745 -186 -295 -459 -688 -602 -864 -53 -66 -161 -190
-209 -240 -150 -158 -216 -154 -261 14 -7 25 -15 54 -18 65 -9 30 -10 435 -2
491 4 27 11 79 14 116 4 37 9 77 11 90 4 22 23 154 30 208 2 14 6 39 9 55 3
17 8 48 11 70 4 22 8 47 10 55 2 8 7 38 11 65 3 28 8 53 10 56 3 6 5 17 19
109 4 25 9 54 11 65 8 40 24 131 29 165 3 19 10 58 15 85 5 28 12 66 14 85 3
19 16 107 30 195 26 169 42 297 51 406 3 36 7 75 9 86 7 33 18 269 18 373 1
545 -170 849 -513 915 -167 31 -294 -13 -434 -150 -100 -98 -161 -180 -265
-355 -77 -128 -336 -637 -429 -840 -24 -52 -99 -214 -166 -360 -68 -146 -139
-301 -160 -345 -43 -95 -71 -153 -118 -255 -19 -41 -73 -158 -120 -260 -47
-102 -104 -225 -127 -275 -48 -102 -153 -330 -208 -450 -71 -155 -147 -299
-164 -309 -26 -16 -32 -2 -32 82 0 135 22 321 79 647 13 77 27 156 30 175 3
19 8 42 10 50 2 8 6 31 9 50 3 19 8 46 11 60 3 14 10 52 15 85 6 33 17 89 25
125 8 36 17 81 20 100 3 19 14 78 25 130 11 52 22 106 24 120 3 14 12 61 21
105 28 133 35 169 41 200 3 17 9 46 14 65 5 19 18 80 29 135 17 86 75 359 86
405 13 58 25 109 29 130 8 42 14 68 47 209 17 75 32 152 31 172 0 52 -27 96
-80 130 -206 131 -654 69 -761 -105 -20 -32 -45 -123 -67 -241 -3 -16 -10 -50
-15 -75 -6 -25 -12 -53 -14 -63 -2 -10 -6 -26 -9 -35 -3 -9 -7 -33 -10 -53 -3
-20 -10 -48 -16 -63 -19 -52 -263 -531 -350 -691 -15 -27 -42 -77 -60 -110
-85 -158 -303 -524 -415 -698 -229 -354 -442 -626 -674 -857 -327 -326 -621
-486 -877 -476 -158 6 -266 84 -349 251 -42 83 -79 201 -90 285 -3 19 -7 45
-9 57 -23 113 -23 385 -1 653 22 274 114 711 217 1030 46 144 116 330 130 345
5 5 28 10 51 11 92 3 270 26 342 46 22 5 49 12 60 14 43 8 174 53 245 85 307
136 483 313 554 557 22 77 16 211 -13 286 -29 72 -113 163 -186 199 -54 27
-137 54 -200 65 -52 9 -288 9 -342 0 -86 -15 -177 -39 -242 -64 -499 -197
-906 -598 -1175 -1159 -82 -172 -125 -278 -162 -406 -16 -56 -134 -288 -266
-522 -21 -38 -38 -70 -38 -72 0 -2 -22 -42 -50 -90 -27 -48 -50 -88 -50 -90 0
-1 -31 -56 -69 -121 -37 -66 -77 -135 -87 -154 -128 -233 -458 -755 -658
-1040 -61 -87 -256 -351 -266 -360 -3 -3 -24 -27 -45 -55 -66 -83 -70 -87
-145 -175 -376 -441 -706 -733 -1073 -951 -56 -33 -109 -64 -117 -69 -38 -24
-234 -120 -310 -152 -184 -78 -453 -158 -585 -174 -27 -4 -52 -8 -56 -10 -26
-15 -344 -24 -424 -12 -27 5 -72 10 -98 13 -113 12 -289 70 -440 145 -438 219
-758 626 -960 1221 -32 93 -100 339 -113 402 -2 12 -13 67 -24 122 -10 55 -22
118 -25 140 -3 23 -8 52 -10 65 -7 35 -33 251 -40 340 -4 41 -8 86 -10 100
-11 78 -19 347 -19 645 0 290 3 403 19 655 3 53 15 209 21 265 11 117 13 143
19 205 4 36 8 76 10 90 2 14 7 52 10 85 3 33 10 87 15 120 5 33 12 85 15 115
3 30 10 80 15 110 5 30 12 75 15 100 3 25 10 68 15 95 6 28 14 79 19 115 12
84 43 254 82 450 37 187 37 189 44 220 3 14 10 45 15 70 5 25 11 54 14 65 2
11 14 63 26 115 21 94 142 571 179 705 83 299 284 905 313 942 5 6 15 10 21 8
17 -6 127 -13 307 -22 274 -13 788 -7 960 11 19 2 67 7 105 10 39 4 86 9 105
11 19 2 55 7 80 10 94 12 127 16 180 25 30 5 71 12 90 15 314 50 754 175 1055
300 671 280 1143 646 1470 1140 211 319 312 605 320 905 5 182 -18 310 -82
455 -115 263 -343 458 -660 564 -51 17 -103 33 -115 35 -13 2 -45 9 -73 15
-124 27 -270 39 -467 39 -114 -1 -209 -2 -210 -4z m647 -159 c17 -3 55 -10 87
-16 74 -13 184 -50 260 -89 269 -137 440 -382 474 -680 11 -99 5 -268 -11
-330 -2 -8 -6 -31 -9 -50 -17 -113 -103 -345 -177 -473 -21 -38 -39 -73 -39
-78 0 -5 -4 -9 -10 -9 -5 0 -10 -5 -10 -10 0 -16 -88 -143 -170 -245 -103
-128 -192 -221 -340 -350 -102 -89 -358 -268 -487 -341 -411 -230 -845 -388
-1348 -489 -38 -8 -86 -16 -105 -19 -19 -3 -44 -8 -56 -10 -12 -2 -45 -7 -74
-11 -29 -4 -60 -8 -69 -10 -19 -3 -98 -13 -161 -20 -25 -2 -65 -7 -90 -9 -49
-6 -170 -14 -295 -22 -101 -5 -536 -5 -635 1 -210 12 -260 16 -320 21 -86 8
-84 8 -89 17 -1 4 3 22 10 40 313 790 813 1561 1391 2148 261 265 483 451 728
610 148 96 360 211 495 266 174 72 475 146 650 160 39 3 72 7 74 9 6 5 294 -4
326 -11z m14045 -4009 c308 -47 586 -197 786 -427 76 -86 92 -106 103 -127 6
-11 17 -26 23 -34 38 -39 135 -219 196 -363 57 -132 125 -359 148 -495 4 -25
8 -47 9 -50 5 -23 25 -155 30 -200 1 -14 5 -47 9 -75 20 -169 27 -571 13 -760
-19 -245 -24 -298 -53 -507 -5 -35 -28 -171 -69 -393 -10 -51 -57 -250 -61
-254 -6 -7 -129 0 -264 14 -112 12 -343 63 -472 106 -216 71 -433 170 -623
285 -49 30 -99 60 -110 67 -11 7 -22 14 -25 17 -3 4 -42 32 -87 64 -46 31 -88
63 -95 69 -7 7 -36 30 -63 52 -28 21 -74 62 -104 90 l-53 51 27 70 c35 88 99
214 189 368 103 178 126 226 126 258 0 91 -110 190 -239 216 -20 4 -67 6 -104
5 -105 -2 -152 -30 -314 -189 -76 -73 -141 -134 -144 -134 -4 0 -12 -7 -19
-15 -15 -18 -19 -13 -62 65 -156 285 -232 690 -188 1010 17 129 19 138 45 235
149 546 540 898 1090 979 83 13 277 13 355 2z m-10642 -1592 c33 -22 46 -38
72 -92 18 -38 34 -102 32 -127 -5 -50 -10 -74 -20 -98 -7 -16 -12 -32 -12 -36
0 -38 -176 -243 -249 -289 -14 -9 -30 -22 -34 -29 -4 -7 -15 -13 -22 -13 -8 0
-15 -5 -15 -10 0 -8 -112 -68 -140 -75 -3 -1 -18 -7 -35 -14 -16 -7 -39 -14
-50 -16 -11 -1 -20 -3 -20 -4 0 -5 -131 -30 -188 -37 -63 -7 -157 -7 -163 -1
-8 8 135 296 181 365 19 30 35 56 35 58 0 13 146 197 197 247 153 153 343 228
431 171z m9912 -1474 c221 -194 508 -375 800 -502 145 -64 355 -137 440 -153
13 -2 37 -9 54 -14 80 -25 294 -58 441 -67 50 -4 91 -7 92 -8 5 -4 -59 -191
-99 -290 -256 -644 -630 -1060 -1046 -1166 -130 -33 -274 -28 -395 14 -148 52
-267 142 -364 277 -105 143 -181 373 -201 604 -15 184 -4 499 24 655 3 19 8
51 10 70 2 19 7 49 11 65 3 17 7 39 9 50 6 40 43 202 67 290 54 196 70 244 83
237 6 -4 40 -32 74 -62z"/>
</g>
</svg>
